P3
2 2
255
0 255 63
1 255 63
2 255 63
3 255 63